<svg version="1.1" id="Layer_1" xmlns="http://www.w3.org/2000/svg" xmlns:xlink="http://www.w3.org/1999/xlink" x="0px" y="0px" viewBox="0 0 257.2 79.4" style="enable-background:new 0 0 257.2 79.4;" xml:space="preserve">
 <style type="text/css">
  .st0{fill:#004E96;}
	.st1{fill:#FAA61A;}
	.st2{fill:#FFFFFF;}
	.st3{clip-path:url(#SVGID_00000076578632133511068970000005951493690654953653_);fill:#FFFFFF;}
	.st4{clip-path:url(#SVGID_00000076578632133511068970000005951493690654953653_);fill:#004E96;}
 </style>
 <g>
  <rect x="0.1" class="st0" width="256.8" height="64.2">
  </rect>
  <rect x="0.1" y="57.8" class="st1" width="256.8" height="6.4">
  </rect>
  <polygon class="st2" points="31,14.6 30.6,19.3 22.3,19.3 21.5,25.8 29.8,25.8 29.3,30.5 21,30.5 19.4,43.3 14.6,43.3 18,14.6 	">
  </polygon>
  <g>
   <defs>
    <rect id="SVGID_1_" width="257.2" height="79.4">
    </rect>
   </defs>
   <clipPath id="SVGID_00000180338053586106213600000016189272980959071382_">
    <use href="#SVGID_1_" style="overflow:visible;">
    </use>
   </clipPath>
   <path style="clip-path:url(#SVGID_00000180338053586106213600000016189272980959071382_);fill:#FFFFFF;" d="M33.4,14.6l-3.3,28.6
			c0,0,14.1,0.3,14.1,0c0-0.3,0.5-4.5,0.5-4.5h-9.4l1-8.2h9.5l0.6-4.8h-9.4l0.8-6.5h9.4l0.5-4.7L33.4,14.6z">
   </path>
   <path style="clip-path:url(#SVGID_00000180338053586106213600000016189272980959071382_);fill:#FFFFFF;" d="M72,14.6l-3.3,28.6
			c0,0,14.1,0.3,14.1,0c0-0.3,0.5-4.5,0.5-4.5h-9.4l1-8.2h9.5l0.6-4.8h-9.4l0.8-6.5h9.4l0.6-4.7L72,14.6z">
   </path>
   <path style="clip-path:url(#SVGID_00000180338053586106213600000016189272980959071382_);fill:#FFFFFF;" d="M56.9,14.7l-6.4,0
			l-3.2,28.6H52l0,0c1,0.1,6.6,0.5,10.1-1.5c0,0,7.2-3,7.2-14.8C69.2,26.9,68.8,16,56.9,14.7 M58.1,38.6c0,0-4.4,0.3-5.6,0.1
			l2.2-19.5l3.5-0.1c0,0,5,0,6.4,6.4c0,0,0,0.1,0,0.1C66,32.3,61.9,38.1,58.1,38.6">
   </path>
   <path style="clip-path:url(#SVGID_00000180338053586106213600000016189272980959071382_);fill:#FFFFFF;" d="M103.7,43.3l-6-12.3
			c0,0,5.3-1,5.8-8.4c0,0,0.1-7.5-7.3-7.9h-6.9L86,43.3h4.8l1.3-11.8l0.6,0l0,0l6,11.8H103.7z M93.5,19.3c0,0,4.7-0.9,5.3,2
			c0,0,1.1,5.3-3.8,6l-2.4,0L93.5,19.3z">
   </path>
   <path style="clip-path:url(#SVGID_00000180338053586106213600000016189272980959071382_);fill:#FFFFFF;" d="M123.6,43.3h5
			l-8.3-28.8l-16,28.8h5.4l3.2-6.1h9.2L123.6,43.3z M115.3,32.6l3.8-7.3l1.8,7.3L115.3,32.6z">
   </path>
   <path style="clip-path:url(#SVGID_00000180338053586106213600000016189272980959071382_);fill:#FFFFFF;" d="M187.9,43.3h5
			l-8.3-28.8l-16,28.8h5.4l3.2-6.1h9.2L187.9,43.3z M179.5,32.6l3.8-7.3l1.8,7.3L179.5,32.6z">
   </path>
   <polygon style="clip-path:url(#SVGID_00000180338053586106213600000016189272980959071382_);fill:#FFFFFF;" points="132.9,14.8 
			129.6,43.3 142.5,43.3 143,38.8 135,38.8 137.5,14.8 		">
   </polygon>
   <path style="clip-path:url(#SVGID_00000180338053586106213600000016189272980959071382_);fill:#FFFFFF;" d="M165.9,28.4
			c0,0,3.8-3.3,2.9-7.6c0,0-0.5-5.5-7-6.1h-6.3l-3.2,28.6h4.2h0.7c0,0,0.8,0,2.4,0c0,0,6.3,0.1,8.5-3.5
			C168,39.7,172.2,33.5,165.9,28.4 M160.1,18.8c0,0,2.9-0.2,3.9,1.5c0,0,2,4-2.3,5.9l-2.5,0.1l0.8-7.1L160.1,18.8z M163.8,37.6
			c0,0-1.2,1.8-6,1.2l-0.1,0l1-8.3c0.8-0.1,2.7-0.2,3.3,0.2C162,30.8,166.6,32,163.8,37.6">
   </path>
   <polygon style="clip-path:url(#SVGID_00000180338053586106213600000016189272980959071382_);fill:#FFFFFF;" points="198.7,14.4 
			194.6,43.3 199.2,43.3 201.6,24.7 217.2,43.2 221.1,14.6 216.2,14.6 214.2,31.8 		">
   </polygon>
   <polygon style="clip-path:url(#SVGID_00000180338053586106213600000016189272980959071382_);fill:#FFFFFF;" points="242.5,14.6 
			237,14.6 227.9,24.6 229,14.6 224.1,14.5 220.8,43.3 225.7,43.3 227,31.9 227.8,31 236.3,43.2 241.9,43.2 231.4,27.1 		">
   </polygon>
   <path style="clip-path:url(#SVGID_00000180338053586106213600000016189272980959071382_);fill:#004E96;" d="M3.8,75.1
			c-0.5-0.8-1-1.6-1.7-2.7l-1-1.4c-0.4-0.7-0.8-1.1-0.9-1.4C0.2,69.4,0,69.2,0,69.2c0.3,0,0.6,0,0.9,0s0.7,0,0.9,0
			C2,69.5,2.1,69.7,2.2,70c0.1,0.2,0.3,0.6,0.6,1l0.6,1c0.5,0.8,1,1.6,1.3,2.2l0,0c0.4-0.6,0.8-1.3,1.2-2L6.6,71
			c0.2-0.4,0.4-0.7,0.5-1c0.1-0.2,0.2-0.5,0.3-0.8c0.2,0,0.4,0,0.7,0c0.3,0,0.5,0,0.7,0c-0.1,0.1-0.2,0.2-0.3,0.4
			C8.3,69.9,8,70.3,7.6,71l-0.9,1.3c-0.6,0.9-1.1,1.8-1.5,2.5v0.8c0,1.1,0,1.9,0,2.4c0,0.5,0,0.9,0.1,1.2c-0.2,0-0.5,0-0.8,0
			c-0.3,0-0.5,0-0.8,0c0-0.3,0.1-0.7,0.1-1.2c0-0.5,0-1.3,0-2.4V75.1z">
   </path>
   <path style="clip-path:url(#SVGID_00000180338053586106213600000016189272980959071382_);fill:#004E96;" d="M15.7,79.4
			c1.7,0,3.1-0.5,4.2-1.5c1.1-1,1.6-2.3,1.6-3.9c0-1.5-0.5-2.7-1.5-3.6c-1-0.9-2.4-1.4-4.1-1.4c-1.7,0-3.1,0.5-4.2,1.5
			c-1.1,1-1.6,2.3-1.6,3.9c0,1.5,0.5,2.7,1.6,3.6C12.7,78.9,14,79.4,15.7,79.4 M15.8,78.7c-1.2,0-2.2-0.4-3-1.2
			c-0.7-0.8-1.1-1.9-1.1-3.2c0-1.4,0.4-2.5,1.1-3.4c0.7-0.8,1.7-1.3,3-1.3c1.2,0,2.2,0.4,3,1.2c0.7,0.8,1.1,1.9,1.1,3.2
			c0,1.4-0.4,2.5-1.1,3.4C18,78.3,17,78.7,15.8,78.7">
   </path>
   <path style="clip-path:url(#SVGID_00000180338053586106213600000016189272980959071382_);fill:#004E96;" d="M32.8,74.8
			c0,1.5-0.4,2.6-1.1,3.4c-0.7,0.8-1.8,1.2-3.3,1.2c-1.5,0-2.5-0.3-3.2-1c-0.7-0.7-1-1.7-1.1-3.1v-1l0-3.3c0-0.6,0-1,0-1.2
			c0-0.2,0-0.4-0.1-0.5c0.2,0,0.5,0,0.8,0c0.3,0,0.6,0,0.8,0c0,0.1-0.1,0.3-0.1,0.6c0,0.2,0,0.6-0.1,1.2c0,1,0,2.1,0,3.3v0.6
			c0,1.3,0.3,2.2,0.8,2.8c0.5,0.6,1.3,0.9,2.4,0.9c1.1,0,2-0.3,2.5-1c0.5-0.6,0.8-1.7,0.8-3.1v-0.3l0-3.3c0-0.6,0-1,0-1.3
			c0-0.2,0-0.4,0-0.5c0.2,0,0.3,0,0.5,0c0.2,0,0.4,0,0.5,0c0,0.2-0.1,0.4-0.1,0.6c0,0.2,0,0.6-0.1,1.2c0,1,0,2.1,0,3.3V74.8z">
   </path>
   <path style="clip-path:url(#SVGID_00000180338053586106213600000016189272980959071382_);fill:#004E96;" d="M36,78.7
			c0,0.2,0,0.4-0.1,0.5c0.2,0,0.5,0,0.8,0c0.3,0,0.5,0,0.8,0c0-0.1,0-0.3,0-0.5c0-0.2,0-0.7,0-1.3c0-0.9,0-2,0-3.1h0h0.5
			c0.5,0.6,1.1,1.3,1.8,2.1l0.9,1c0.4,0.5,0.7,0.8,0.9,1.1c0.2,0.2,0.3,0.5,0.5,0.7c0.3,0,0.6,0,1,0c0.4,0,0.7,0,1,0
			c-0.1,0-0.2-0.2-0.4-0.4c-0.2-0.2-0.6-0.7-1.2-1.4l-0.8-1c-0.7-0.8-1.3-1.6-1.9-2.2c0.7-0.1,1.4-0.3,1.9-0.7
			c0.8-0.5,1.2-1.2,1.2-2c0-0.8-0.3-1.4-0.8-1.8s-1.4-0.6-2.5-0.6c-0.2,0-0.4,0-0.6,0c-0.2,0-0.5,0-0.8,0c-0.2,0-0.4,0-0.7,0
			c-0.3,0-0.7,0-1.2,0c0,0.1,0,0.3,0,0.5c0,0.2,0,0.7,0,1.3c0,1,0,2,0,3.2c0,1.2,0,2.3,0,3.2C36,78.1,36,78.5,36,78.7 M37.4,69.9
			c0.4,0,0.8,0,1.3-0.1c0.8,0,1.4,0.2,1.8,0.5c0.4,0.3,0.6,0.7,0.6,1.3c0,0.6-0.3,1.1-0.8,1.5c-0.6,0.4-1.3,0.6-2.2,0.6
			c-0.2,0-0.5,0-0.7,0V69.9z">
   </path>
   <path style="clip-path:url(#SVGID_00000180338053586106213600000016189272980959071382_);fill:#004E96;" d="M50.1,78.7
			c0,0.2,0,0.4,0,0.5c0.2,0,0.5,0,0.8,0c0.3,0,0.5,0,0.8,0c0-0.1,0-0.3,0-0.5c0-0.2,0-0.7,0-1.3c0-0.9,0-1.8,0-2.9h0
			c0.4,0.1,0.8,0.1,1.3,0.1c1.3,0,2.3-0.3,3-0.8c0.7-0.5,1.1-1.2,1.1-2.2c0-0.9-0.3-1.5-0.9-1.9c-0.6-0.4-1.5-0.6-2.7-0.6
			c-0.2,0-0.4,0-0.6,0c-0.2,0-0.5,0-0.7,0c-0.2,0-0.5,0-0.8,0c-0.3,0-0.6,0-1,0c0,0.1,0,0.3,0,0.5c0,0.2,0,0.7,0,1.3c0,1,0,2,0,3.2
			c0,1.2,0,2.3,0,3.2C50.2,78.1,50.2,78.5,50.1,78.7 M51.5,70c0.4,0,0.8-0.1,1.3-0.1c0.8,0,1.5,0.2,1.9,0.5c0.4,0.3,0.6,0.8,0.6,1.4
			c0,0.7-0.3,1.2-0.8,1.6c-0.5,0.4-1.2,0.6-2.1,0.6c-0.4,0-0.7,0-1,0V70z">
   </path>
   <path style="clip-path:url(#SVGID_00000180338053586106213600000016189272980959071382_);fill:#004E96;" d="M58.7,79.3
			c0-0.1,0-0.3,0-0.5c0-0.2,0-0.7,0-1.3c0-1,0-2.1,0-3.3c0-1.2,0-2.3,0-3.3c0-0.6,0-1,0-1.3c0-0.2,0-0.4,0-0.5
			c0.2,0,0.5,0.1,0.9,0.1c0.4,0,0.8,0,1.3,0H62c0.5,0,0.9,0,1.2,0c0.4,0,0.7-0.1,1-0.1c0,0.1,0,0.3,0,0.5c0,0.2,0,0.4,0,0.5
			c-0.2,0-0.5-0.1-0.9-0.1c-0.4,0-0.9,0-1.3,0h-0.5c-0.5,0-0.9,0-1.3,0l0,3.6l1.4,0c0.4,0,0.9,0,1.4,0c0.5,0,0.8-0.1,1-0.1
			c0,0.1,0,0.3,0,0.5c0,0.2,0,0.4,0,0.5c-0.2,0-0.5-0.1-1-0.1c-0.5,0-0.9,0-1.4,0l-1.3,0c0,1.6,0,2.9,0,4.1l1,0h0.5
			c0.5,0,0.9,0,1.4,0c0.5,0,0.9-0.1,1.1-0.1c0,0.2,0,0.3,0,0.5c0,0.2,0,0.4,0,0.5c-0.2,0-0.5-0.1-1-0.1c-0.4,0-0.8,0-1.2,0h-1.2
			c-0.4,0-0.8,0-1.2,0C59.2,79.2,58.9,79.3,58.7,79.3">
   </path>
   <path style="clip-path:url(#SVGID_00000180338053586106213600000016189272980959071382_);fill:#004E96;" d="M66.9,78.7
			c0,0.2,0,0.4,0,0.5c0.2,0,0.5,0,0.8,0s0.5,0,0.8,0c0-0.1,0-0.3,0-0.5c0-0.2,0-0.7,0-1.3c0-0.9,0-2,0-3.1h0h0.5
			c0.5,0.6,1.1,1.3,1.8,2.1l0.9,1c0.4,0.5,0.7,0.8,0.9,1.1c0.2,0.2,0.3,0.5,0.5,0.7c0.3,0,0.6,0,1,0c0.4,0,0.7,0,1,0
			c-0.1,0-0.2-0.2-0.4-0.4c-0.2-0.2-0.6-0.7-1.2-1.4l-0.8-1c-0.7-0.8-1.3-1.6-1.9-2.2c0.7-0.1,1.4-0.3,1.9-0.7
			c0.8-0.5,1.2-1.2,1.2-2c0-0.8-0.3-1.4-0.8-1.8c-0.6-0.4-1.4-0.6-2.5-0.6c-0.2,0-0.4,0-0.6,0c-0.2,0-0.5,0-0.8,0
			c-0.2,0-0.4,0-0.7,0c-0.3,0-0.7,0-1.2,0c0,0.1,0,0.3,0,0.5c0,0.2,0,0.7,0,1.3c0,1,0,2,0,3.2c0,1.2,0,2.3,0,3.2
			C66.9,78.1,66.9,78.5,66.9,78.7 M68.3,69.9c0.4,0,0.8,0,1.3-0.1c0.8,0,1.4,0.2,1.8,0.5c0.4,0.3,0.6,0.7,0.6,1.3
			c0,0.6-0.3,1.1-0.8,1.5c-0.6,0.4-1.3,0.6-2.2,0.6c-0.2,0-0.5,0-0.7,0V69.9z">
   </path>
   <path style="clip-path:url(#SVGID_00000180338053586106213600000016189272980959071382_);fill:#004E96;" d="M76.4,77.4
			c0-1,0-2,0-3.3c0-1.2,0-2.3,0-3.3c0-0.6,0-1.1,0-1.3c0-0.2,0-0.4,0-0.5c0.2,0,0.5,0.1,1,0.1c0.5,0,1,0,1.5,0h0.9
			c0.5,0,0.9,0,1.2,0c0.4,0,0.7-0.1,1-0.1c0,0.2,0,0.3,0,0.5c0,0.2,0,0.4,0,0.5c-0.2,0-0.5-0.1-0.9-0.1c-0.4,0-0.9,0-1.3,0h-0.6
			c-0.5,0-1,0-1.4,0c0,1,0,2.2,0,3.6l1.5,0c0.5,0,0.9,0,1.4,0c0.5,0,0.8-0.1,1-0.1c0,0.1,0,0.3,0,0.5c0,0.2,0,0.4,0,0.5
			c-0.1,0-0.4,0-0.9-0.1c-0.5,0-1,0-1.5-0.1l-1.5,0c0,1.2,0,2.2,0,3.2c0,0.6,0,1.1,0,1.3c0,0.2,0,0.4,0,0.5c-0.2,0-0.5,0-0.8,0
			c-0.3,0-0.5,0-0.8,0c0-0.1,0-0.3,0.1-0.5C76.3,78.5,76.3,78.1,76.4,77.4">
   </path>
   <path style="clip-path:url(#SVGID_00000180338053586106213600000016189272980959071382_);fill:#004E96;" d="M84.2,79.3
			c0-0.1,0-0.3,0-0.5c0-0.2,0-0.7,0-1.3c0-1,0-2.1,0-3.3c0-1.2,0-2.3,0-3.3c0-0.6,0-1,0-1.3c0-0.2,0-0.4,0-0.5
			c0.2,0,0.5,0.1,0.9,0.1c0.4,0,0.8,0,1.3,0h1.2c0.5,0,0.9,0,1.2,0c0.4,0,0.7-0.1,1-0.1c0,0.1,0,0.3,0,0.5c0,0.2,0,0.4,0,0.5
			c-0.2,0-0.5-0.1-0.9-0.1c-0.4,0-0.9,0-1.3,0H87c-0.5,0-0.9,0-1.3,0l0,3.6l1.4,0c0.5,0,0.9,0,1.4,0c0.5,0,0.8-0.1,1-0.1
			c0,0.1,0,0.3,0,0.5c0,0.2,0,0.4,0,0.5c-0.2,0-0.5-0.1-1-0.1c-0.5,0-0.9,0-1.4,0l-1.3,0c0,1.6,0,2.9,0,4.1l1,0h0.5
			c0.5,0,0.9,0,1.4,0c0.5,0,0.9-0.1,1.1-0.1c0,0.2,0,0.3,0,0.5c0,0.2,0,0.4,0,0.5c-0.2,0-0.5-0.1-1-0.1c-0.4,0-0.8,0-1.2,0h-1.2
			c-0.4,0-0.8,0-1.2,0C84.7,79.2,84.4,79.3,84.2,79.3">
   </path>
   <path style="clip-path:url(#SVGID_00000180338053586106213600000016189272980959071382_);fill:#004E96;" d="M100.6,77.7
			c0,0.2-0.1,0.3-0.1,0.4c0,0.1,0,0.3,0,0.4c-0.5,0.3-1.1,0.5-1.6,0.6c-0.6,0.1-1.2,0.2-1.8,0.2c-1.6,0-2.9-0.5-3.9-1.4
			c-1-0.9-1.5-2.1-1.5-3.6c0-1.6,0.5-2.9,1.6-3.9c1-1,2.4-1.5,4.1-1.5c0.6,0,1.2,0,1.8,0.2c0.6,0.1,1.1,0.3,1.6,0.5
			c-0.1,0.2-0.1,0.4-0.2,0.6c0,0.2-0.1,0.4-0.2,0.6l-0.2,0c-0.3-0.4-0.8-0.7-1.3-0.9c-0.5-0.2-1-0.3-1.5-0.3c-1.2,0-2.2,0.4-3,1.3
			c-0.7,0.8-1.1,2-1.1,3.4c0,1.3,0.4,2.3,1.1,3.2c0.8,0.8,1.7,1.2,2.9,1.2c0.6,0,1.2-0.1,1.8-0.3c0.6-0.2,1-0.5,1.4-0.9L100.6,77.7z
			">
   </path>
   <path style="clip-path:url(#SVGID_00000180338053586106213600000016189272980959071382_);fill:#004E96;" d="M105.2,77.4
			c0-1,0-2,0-3.2c0-1.7,0-3.1,0-4.3l-0.8,0c-0.5,0-1,0-1.5,0c-0.5,0-0.8,0.1-1,0.1c0-0.1,0-0.3,0-0.5c0-0.2,0-0.4,0-0.5
			c0.6,0,1.2,0.1,1.9,0.1c0.7,0,1.2,0,1.6,0h0.4h0.4c0.4,0,1,0,1.7,0c0.7,0,1.3-0.1,1.8-0.1c0,0.1,0,0.3,0,0.5c0,0.2,0,0.4,0,0.5
			c-0.2,0-0.5-0.1-1-0.1c-0.5,0-1,0-1.5,0h-0.6c0,1.2-0.1,2.6-0.1,4.2c0,1.2,0,2.3,0,3.2c0,0.6,0,1,0,1.3c0,0.2,0,0.4,0,0.5
			c-0.2,0-0.5,0-0.8,0c-0.3,0-0.5,0-0.8,0c0-0.1,0-0.3,0-0.5C105.1,78.5,105.1,78.1,105.2,77.4">
   </path>
   <path style="clip-path:url(#SVGID_00000180338053586106213600000016189272980959071382_);fill:#004E96;" d="M117.6,74.3h1
			c1,0,1.7,0.2,2.2,0.5c0.5,0.3,0.8,0.8,0.8,1.5c0,0.7-0.3,1.3-0.8,1.7c-0.5,0.4-1.3,0.6-2.3,0.6c-0.3,0-0.7,0-0.9-0.1V74.3z
			 M116.2,78.7c0,0.2,0,0.4-0.1,0.5l0.7,0l1.9,0c1.3,0,2.3-0.3,3-0.8c0.8-0.5,1.2-1.2,1.2-2.1c0-0.9-0.3-1.6-1-2
			c-0.5-0.3-1.1-0.5-1.8-0.6c0.5-0.1,1-0.3,1.4-0.6c0.7-0.5,1.1-1.1,1.1-1.8c0-0.7-0.3-1.3-0.9-1.6c-0.6-0.4-1.5-0.5-2.7-0.5l-2.2,0
			l-0.7,0c0,0.1,0,0.3,0,0.5c0,0.2,0,0.7,0,1.3c0,0.9,0,2,0,3.2c0,1.2,0,2.3,0,3.2C116.3,78.1,116.3,78.5,116.2,78.7 M117.6,70
			c0.4-0.1,0.7-0.1,1.2-0.1c0.8,0,1.4,0.1,1.8,0.5c0.5,0.3,0.7,0.7,0.7,1.2c0,0.6-0.2,1-0.7,1.4c-0.5,0.3-1.1,0.5-2,0.5h-0.9V70z">
   </path>
   <path style="clip-path:url(#SVGID_00000180338053586106213600000016189272980959071382_);fill:#004E96;" d="M124.9,78.8
			c-0.1,0.2-0.2,0.4-0.3,0.5c0.2,0,0.4,0,0.6,0s0.4,0,0.6,0c0.1-0.3,0.1-0.5,0.2-0.8c0.1-0.2,0.2-0.6,0.4-1c0.2-0.6,0.5-1.3,0.8-1.9
			c0.6-0.1,1.2-0.1,1.9-0.1c0.7,0,1.3,0.1,1.9,0.1l0.9,1.9c0.2,0.5,0.3,0.8,0.4,1.1c0.1,0.2,0.2,0.5,0.2,0.7c0.2,0,0.5,0,0.8,0
			c0.3,0,0.6,0,0.8,0l-0.9-1.8c-0.5-0.9-1-2-1.5-3.2c-0.9-2-1.7-3.7-2.2-5h-0.2h-0.2c-0.6,1.4-1.3,3-2.3,5c-0.6,1.2-1.1,2.2-1.6,3.2
			C125.2,78.1,125,78.5,124.9,78.8 M129.3,71.3L129.3,71.3l1.3,2.9l0.1,0.3c-0.5,0.1-1,0.1-1.5,0.1c-0.5,0-1,0-1.5-0.1l0.2-0.4
			c0.5-1.1,0.7-1.6,0.7-1.6S128.8,72.2,129.3,71.3">
   </path>
   <path style="clip-path:url(#SVGID_00000180338053586106213600000016189272980959071382_);fill:#004E96;" d="M137.4,77.4
			c0,0.6,0,1,0.1,1.3c0,0.2,0,0.4,0.1,0.5c-0.2,0-0.3,0-0.5,0c-0.2,0-0.4,0-0.6,0c0-0.1,0-0.3,0-0.5c0-0.2,0-0.7,0-1.3
			c0-1,0-2,0-3.2c0-1.2,0-2.2,0-3.2c0-0.6,0-1,0-1.3c0-0.2,0-0.4,0-0.5h0.2h0.2c1.3,1.4,2.9,3.1,5,5.1l2.5,2.5l0-2.6
			c0-1.2,0-2.3,0-3.3c0-0.6,0-1.1,0-1.3c0-0.2,0-0.4,0-0.5c0.2,0,0.3,0,0.5,0c0.2,0,0.4,0,0.5,0c0,0.1,0,0.3,0,0.5
			c0,0.2,0,0.7,0,1.3c0,1,0,2.1,0,3.3c0,2,0,3.7,0.1,5.1h-0.2h-0.2c-1.3-1.4-2.9-3.1-5-5.1l-2.5-2.5v2.5
			C137.4,75.4,137.4,76.5,137.4,77.4">
   </path>
   <path style="clip-path:url(#SVGID_00000180338053586106213600000016189272980959071382_);fill:#004E96;" d="M150,77.4
			c0,0.6,0,1.1,0.1,1.3c0,0.2,0,0.4,0,0.5c-0.2,0-0.5,0-0.8,0c-0.3,0-0.5,0-0.8,0c0-0.1,0-0.3,0-0.5c0-0.2,0-0.7,0-1.3
			c0-1,0-2,0-3.2c0-1.2,0-2.3,0-3.2c0-0.6,0-1.1,0-1.3c0-0.2,0-0.4,0-0.5c0.2,0,0.5,0,0.8,0c0.3,0,0.6,0,0.8,0c0,0.1,0,0.3,0,0.5
			c0,0.2,0,0.7-0.1,1.3c0,0.9,0,1.8,0,2.8h0c0.7-0.5,1.5-1.3,2.4-2.1c1-0.9,1.8-1.8,2.3-2.4h0.8c0.3,0,0.6,0,0.8,0
			c-0.1,0.1-0.3,0.2-0.6,0.4c-0.3,0.2-0.8,0.7-1.5,1.3l-1.2,1.1l-1.6,1.5l1.7,1.9l1.7,1.9c0.6,0.7,1,1.1,1.2,1.4
			c0.2,0.2,0.4,0.4,0.4,0.4c-0.3,0-0.6,0-1,0c-0.4,0-0.7,0-1,0c-0.1-0.2-0.3-0.5-0.5-0.7c-0.2-0.2-0.5-0.6-0.9-1.1l-0.8-0.9
			c-0.9-1-1.6-1.8-2.2-2.4h0l0,0.1C149.9,75.4,150,76.5,150,77.4">
   </path>
   <path style="clip-path:url(#SVGID_00000180338053586106213600000016189272980959071382_);fill:#004E96;" d="M158.2,77.4
			c0-1,0-2,0-3.2c0-1.2,0-2.3,0-3.2c0-0.6,0-1,0-1.3c0-0.2,0-0.4-0.1-0.5c0.2,0,0.5,0,0.8,0c0.3,0,0.5,0,0.8,0c0,0.1,0,0.3,0,0.5
			s0,0.7,0,1.3c0,1,0,2,0,3.2c0,1.2,0,2.3,0,3.2c0,0.6,0,1.1,0,1.3c0,0.2,0,0.4,0,0.5c-0.2,0-0.5,0-0.8,0c-0.3,0-0.5,0-0.8,0
			c0-0.1,0-0.3,0.1-0.5C158.2,78.5,158.2,78,158.2,77.4">
   </path>
   <path style="clip-path:url(#SVGID_00000180338053586106213600000016189272980959071382_);fill:#004E96;" d="M163.8,77.4
			c0,0.6,0,1,0.1,1.3c0,0.2,0,0.4,0.1,0.5c-0.2,0-0.3,0-0.5,0c-0.2,0-0.4,0-0.5,0c0-0.1,0-0.3,0-0.5c0-0.2,0-0.7,0-1.3
			c0-1,0-2,0-3.2c0-1.2,0-2.2,0-3.2c0-0.6,0-1,0-1.3c0-0.2,0-0.4,0-0.5h0.2h0.2c1.3,1.4,2.9,3.1,5,5.1l2.5,2.5l0-2.6
			c0-1.2,0-2.3,0-3.3c0-0.6,0-1.1,0-1.3c0-0.2,0-0.4,0-0.5c0.2,0,0.3,0,0.5,0c0.2,0,0.4,0,0.5,0c0,0.1,0,0.3,0,0.5
			c0,0.2,0,0.7,0,1.3c0,1,0,2.1,0,3.3c0,2,0,3.7,0.1,5.1h-0.2h-0.2c-1.3-1.4-2.9-3.1-5-5.1l-2.5-2.5v2.5
			C163.7,75.4,163.8,76.5,163.8,77.4">
   </path>
   <path style="clip-path:url(#SVGID_00000180338053586106213600000016189272980959071382_);fill:#004E96;" d="M179.7,79.4
			c-1.7,0-3-0.5-4-1.4c-1-0.9-1.5-2.1-1.5-3.6c0-1.6,0.5-2.9,1.6-3.9c1.1-1,2.4-1.5,4.1-1.5c0.8,0,1.5,0.1,2.2,0.2
			c0.7,0.1,1.3,0.4,1.9,0.7c-0.1,0.2-0.1,0.4-0.2,0.6s-0.1,0.4-0.2,0.6l-0.2,0c-0.4-0.4-0.9-0.8-1.5-1.1c-0.6-0.3-1.2-0.4-1.8-0.4
			c-1.3,0-2.4,0.4-3.1,1.3c-0.8,0.8-1.2,2-1.2,3.4c0,1.3,0.4,2.4,1.2,3.2c0.8,0.8,1.8,1.2,3.1,1.2c0.8,0,1.7-0.2,2.5-0.5v-1
			c0-0.6,0-1.2,0-1.5c0-0.4-0.1-0.7-0.1-1.2c0.2,0,0.5,0,0.8,0c0.3,0,0.6,0,0.8,0c0,0.2-0.1,0.4-0.1,0.6c0,0.2,0,0.6,0,1.2v0.3
			c0,0.7,0,1.1,0,1.4c0,0.3,0,0.5,0.1,0.7C182.8,79.2,181.3,79.4,179.7,79.4">
   </path>
   <path style="clip-path:url(#SVGID_00000180338053586106213600000016189272980959071382_);fill:#004E96;" d="M191.6,78.7
			c0,0.2,0,0.4-0.1,0.5c0.2,0,0.5,0,0.8,0c0.3,0,0.5,0,0.8,0c0-0.1,0-0.3,0-0.5c0-0.2,0-0.7,0-1.3c0-0.9,0-1.8,0-2.9h0
			c0.4,0.1,0.8,0.1,1.3,0.1c1.3,0,2.3-0.3,3-0.8c0.7-0.5,1.1-1.2,1.1-2.2c0-0.9-0.3-1.5-0.9-1.9c-0.6-0.4-1.5-0.6-2.7-0.6
			c-0.2,0-0.4,0-0.6,0c-0.2,0-0.5,0-0.7,0c-0.2,0-0.5,0-0.8,0c-0.3,0-0.6,0-1,0c0,0.1,0,0.3,0,0.5c0,0.2,0,0.7,0,1.3c0,1,0,2,0,3.2
			c0,1.2,0,2.3,0,3.2C191.6,78.1,191.6,78.5,191.6,78.7 M192.9,70c0.4,0,0.8-0.1,1.3-0.1c0.8,0,1.5,0.2,1.9,0.5
			c0.4,0.3,0.6,0.8,0.6,1.4c0,0.7-0.3,1.2-0.8,1.6c-0.5,0.4-1.2,0.6-2.1,0.6c-0.4,0-0.7,0-1,0V70z">
   </path>
   <path style="clip-path:url(#SVGID_00000180338053586106213600000016189272980959071382_);fill:#004E96;" d="M199.4,78.8
			c-0.1,0.2-0.2,0.4-0.3,0.5c0.2,0,0.4,0,0.6,0c0.2,0,0.4,0,0.6,0c0.1-0.3,0.1-0.5,0.2-0.8c0.1-0.2,0.2-0.6,0.4-1
			c0.2-0.6,0.5-1.3,0.9-1.9c0.6-0.1,1.2-0.1,1.9-0.1c0.7,0,1.3,0.1,1.9,0.1l0.9,1.9c0.2,0.5,0.4,0.8,0.4,1.1
			c0.1,0.2,0.2,0.5,0.2,0.7c0.2,0,0.5,0,0.8,0s0.6,0,0.8,0l-0.9-1.8c-0.5-0.9-0.9-2-1.5-3.2c-0.9-2-1.7-3.7-2.2-5h-0.2h-0.2
			c-0.6,1.4-1.3,3-2.3,5c-0.6,1.2-1.1,2.2-1.6,3.2C199.8,78.1,199.5,78.5,199.4,78.8 M203.8,71.3L203.8,71.3l1.3,2.9l0.1,0.3
			c-0.5,0.1-1,0.1-1.5,0.1c-0.5,0-1,0-1.5-0.1l0.2-0.4c0.5-1.1,0.7-1.6,0.7-1.6S203.4,72.2,203.8,71.3">
   </path>
   <path style="clip-path:url(#SVGID_00000180338053586106213600000016189272980959071382_);fill:#004E96;" d="M210.9,78.7
			c0,0.2,0,0.4-0.1,0.5c0.2,0,0.5,0,0.8,0c0.3,0,0.5,0,0.8,0c0-0.1,0-0.3,0-0.5c0-0.2,0-0.7,0-1.3c0-0.9,0-2,0-3.1h0h0.5
			c0.5,0.6,1.1,1.3,1.8,2.1l0.9,1c0.4,0.5,0.7,0.8,0.9,1.1c0.2,0.2,0.3,0.5,0.5,0.7c0.3,0,0.6,0,1,0c0.4,0,0.7,0,1,0
			c-0.1,0-0.2-0.2-0.4-0.4c-0.2-0.2-0.6-0.7-1.2-1.4l-0.8-1c-0.7-0.8-1.3-1.6-1.8-2.2c0.7-0.1,1.4-0.3,1.9-0.7
			c0.8-0.5,1.2-1.2,1.2-2c0-0.8-0.3-1.4-0.8-1.8c-0.6-0.4-1.4-0.6-2.5-0.6c-0.2,0-0.4,0-0.6,0c-0.2,0-0.5,0-0.8,0
			c-0.2,0-0.4,0-0.7,0c-0.3,0-0.7,0-1.2,0c0,0.1,0,0.3,0,0.5c0,0.2,0,0.7,0,1.3c0,1,0,2,0,3.2c0,1.2,0,2.3,0,3.2
			C210.9,78.1,210.9,78.5,210.9,78.7 M212.2,69.9c0.4,0,0.8,0,1.3-0.1c0.8,0,1.4,0.2,1.8,0.5c0.4,0.3,0.6,0.7,0.6,1.3
			c0,0.6-0.3,1.1-0.8,1.5c-0.6,0.4-1.3,0.6-2.2,0.6c-0.2,0-0.5,0-0.7,0V69.9z">
   </path>
   <path style="clip-path:url(#SVGID_00000180338053586106213600000016189272980959071382_);fill:#004E96;" d="M222.8,77.4
			c0-1,0-2,0-3.2c0-1.7,0-3.1,0-4.3l-0.8,0c-0.5,0-1,0-1.5,0c-0.5,0-0.8,0.1-1,0.1c0-0.1,0-0.3,0-0.5c0-0.2,0-0.4,0-0.5
			c0.6,0,1.2,0.1,1.9,0.1c0.7,0,1.2,0,1.6,0h0.4h0.4c0.4,0,1,0,1.7,0c0.7,0,1.3-0.1,1.9-0.1c0,0.1-0.1,0.3-0.1,0.5
			c0,0.2,0,0.4,0.1,0.5c-0.2,0-0.5-0.1-1-0.1c-0.5,0-1,0-1.5,0h-0.6c0,1.2,0,2.6,0,4.2c0,1.2,0,2.3,0,3.2c0,0.6,0,1,0,1.3
			c0,0.2,0,0.4,0,0.5c-0.2,0-0.5,0-0.8,0c-0.3,0-0.5,0-0.8,0c0-0.1,0-0.3,0-0.5C222.7,78.5,222.7,78.1,222.8,77.4">
   </path>
   <path style="clip-path:url(#SVGID_00000180338053586106213600000016189272980959071382_);fill:#004E96;" d="M230.4,77.4
			c0,0.6,0,1,0.1,1.3c0,0.2,0,0.4,0.1,0.5c-0.2,0-0.3,0-0.5,0c-0.2,0-0.4,0-0.6,0c0-0.1,0-0.3,0-0.5c0-0.2,0-0.7,0-1.3
			c0-1,0-2,0-3.2c0-1.2,0-2.2,0-3.2c0-0.6,0-1,0-1.3c0-0.2,0-0.4,0-0.5h0.2h0.2c1.3,1.4,2.9,3.1,5,5.1l2.5,2.5l0-2.6
			c0-1.2,0-2.3,0-3.3c0-0.6,0-1.1,0-1.3c0-0.2,0-0.4,0-0.5c0.2,0,0.3,0,0.5,0c0.2,0,0.4,0,0.5,0c0,0.1,0,0.3,0,0.5
			c0,0.2,0,0.7,0,1.3c0,1,0,2.1,0,3.3c0,2,0,3.7,0.1,5.1H238h-0.2c-1.3-1.4-2.9-3.1-5-5.1l-2.5-2.5v2.5
			C230.3,75.4,230.3,76.5,230.4,77.4">
   </path>
   <path style="clip-path:url(#SVGID_00000180338053586106213600000016189272980959071382_);fill:#004E96;" d="M241.1,79.3
			c0-0.1,0-0.3,0-0.5c0-0.2,0-0.7,0-1.3c0-1,0-2.1,0-3.3c0-1.2,0-2.3,0-3.3c0-0.6,0-1,0-1.3c0-0.2,0-0.4,0-0.5
			c0.2,0,0.5,0.1,0.9,0.1c0.4,0,0.8,0,1.3,0h1.2c0.5,0,0.9,0,1.2,0c0.4,0,0.7-0.1,1-0.1c0,0.1,0,0.3,0,0.5c0,0.2,0,0.4,0,0.5
			c-0.2,0-0.5-0.1-0.9-0.1c-0.4,0-0.9,0-1.3,0h-0.5c-0.5,0-0.9,0-1.3,0l0,3.6l1.4,0c0.4,0,0.9,0,1.4,0c0.5,0,0.8-0.1,1-0.1
			c0,0.1,0,0.3,0,0.5c0,0.2,0,0.4,0,0.5c-0.2,0-0.5-0.1-1-0.1c-0.5,0-0.9,0-1.4,0l-1.4,0c0,1.6,0,2.9,0,4.1l1,0h0.5
			c0.5,0,0.9,0,1.4,0c0.5,0,0.9-0.1,1.1-0.1c0,0.2,0,0.3,0,0.5c0,0.2,0,0.4,0,0.5c-0.2,0-0.5-0.1-1-0.1c-0.4,0-0.8,0-1.2,0h-1.2
			c-0.4,0-0.8,0-1.2,0C241.7,79.2,241.4,79.3,241.1,79.3">
   </path>
   <path style="clip-path:url(#SVGID_00000180338053586106213600000016189272980959071382_);fill:#004E96;" d="M249.4,78.7
			c0,0.2,0,0.4,0,0.5c0.2,0,0.5,0,0.8,0c0.3,0,0.5,0,0.8,0c0-0.1,0-0.3-0.1-0.5c0-0.2,0-0.7,0-1.3c0-0.9,0-2,0-3.1h0h0.5
			c0.5,0.6,1.1,1.3,1.8,2.1l0.9,1c0.4,0.5,0.7,0.8,0.9,1.1c0.2,0.2,0.3,0.5,0.5,0.7c0.3,0,0.6,0,1,0c0.4,0,0.7,0,1,0
			c-0.1,0-0.2-0.2-0.4-0.4c-0.2-0.2-0.6-0.7-1.2-1.4l-0.8-1c-0.7-0.8-1.3-1.6-1.9-2.2c0.7-0.1,1.4-0.3,1.9-0.7
			c0.8-0.5,1.2-1.2,1.2-2c0-0.8-0.3-1.4-0.8-1.8c-0.6-0.4-1.4-0.6-2.5-0.6c-0.2,0-0.4,0-0.6,0c-0.2,0-0.5,0-0.8,0
			c-0.2,0-0.4,0-0.7,0c-0.3,0-0.7,0-1.2,0c0,0.1,0,0.3,0,0.5c0,0.2,0,0.7,0,1.3c0,1,0,2,0,3.2c0,1.2,0,2.3,0,3.2
			C249.4,78.1,249.4,78.5,249.4,78.7 M250.8,69.9c0.4,0,0.8,0,1.3-0.1c0.8,0,1.4,0.2,1.8,0.5c0.4,0.3,0.6,0.7,0.6,1.3
			c0,0.6-0.3,1.1-0.8,1.5c-0.6,0.4-1.3,0.6-2.2,0.6c-0.2,0-0.5,0-0.7,0V69.9z">
   </path>
  </g>
 </g>
</svg>