<?xml version="1.0" encoding="UTF-8"?>
<!DOCTYPE svg PUBLIC "-//W3C//DTD SVG 1.1//EN" "http://www.w3.org/Graphics/SVG/1.1/DTD/svg11.dtd">
<svg width="640pt" height="338pt" viewBox="0 0 640 338" version="1.1" xmlns="http://www.w3.org/2000/svg">
<g id="#65cd32ff">
<path fill="#65cd32" opacity="1.00" d=" M 0.00 0.00 L 338.43 0.00 C 338.43 112.67 338.43 225.33 338.43 338.00 L 0.00 338.00 L 0.00 0.00 M 143.95 147.95 C 143.95 153.32 143.95 158.68 143.95 164.05 C 150.70 164.05 157.45 164.05 164.20 164.04 C 164.21 158.68 164.21 153.32 164.20 147.96 C 157.45 147.94 150.70 147.95 143.95 147.95 M 295.27 147.95 C 295.26 153.32 295.26 158.68 295.27 164.05 C 301.99 164.05 308.71 164.05 315.43 164.05 C 315.44 158.68 315.44 153.32 315.43 147.95 C 308.71 147.95 301.99 147.95 295.27 147.95 M 63.18 257.82 C 69.86 257.64 76.55 257.76 83.23 257.74 C 83.17 249.97 83.23 242.20 83.19 234.43 C 85.96 231.16 88.65 227.82 91.65 224.75 C 98.52 235.56 104.66 246.81 111.35 257.74 C 119.58 257.77 127.81 257.64 136.04 257.81 C 125.82 241.98 115.76 226.05 105.40 210.31 C 114.69 199.40 124.54 188.97 133.75 178.01 C 125.67 177.94 117.60 177.85 109.52 178.05 C 101.07 188.80 92.42 199.41 83.65 209.90 C 83.36 207.96 83.17 206.00 83.18 204.04 C 83.24 185.55 83.18 167.06 83.21 148.57 C 76.55 148.53 69.90 148.63 63.25 148.50 C 63.24 184.94 63.37 221.38 63.18 257.82 M 144.27 177.95 C 144.21 204.57 144.38 231.20 144.18 257.82 C 150.80 257.64 157.43 257.77 164.05 257.73 C 164.05 231.14 164.06 204.55 164.05 177.95 C 157.45 177.94 150.86 177.95 144.27 177.95 M 171.90 177.94 C 180.22 204.47 188.46 231.03 196.37 257.69 C 201.88 257.78 207.40 257.72 212.92 257.73 C 218.45 241.27 223.82 224.74 229.77 208.43 C 231.63 212.70 233.01 217.15 234.48 221.57 C 238.42 233.62 242.64 245.58 246.39 257.70 C 251.92 257.77 257.44 257.72 262.96 257.73 C 271.17 231.17 279.26 204.56 287.34 177.96 C 280.34 178.02 273.33 177.77 266.33 178.11 C 262.24 194.35 258.11 210.61 253.58 226.73 C 247.37 210.71 242.71 194.11 236.87 177.94 C 232.03 177.98 227.19 177.86 222.36 178.06 C 217.81 192.53 212.83 206.86 208.19 221.30 C 207.62 223.05 206.89 224.76 206.15 226.45 C 203.79 220.54 202.70 214.24 200.97 208.13 C 198.18 198.11 195.86 187.96 193.00 177.95 C 185.96 177.94 178.93 177.96 171.90 177.94 M 295.57 177.95 C 295.51 204.55 295.66 231.15 295.50 257.75 C 302.07 257.71 308.65 257.73 315.23 257.74 C 315.17 231.15 315.23 204.55 315.20 177.96 C 308.65 177.94 302.11 177.95 295.57 177.95 Z"/>
<path fill="#65cd32" opacity="1.00" d=" M 359.76 148.27 C 363.60 148.27 367.45 148.27 371.30 148.26 C 371.57 162.19 371.42 176.13 371.38 190.06 C 379.14 180.28 393.54 178.95 404.53 183.39 C 411.79 186.24 416.33 193.35 418.25 200.63 C 420.98 210.89 420.79 221.70 419.77 232.19 C 418.76 240.39 415.93 249.04 409.12 254.25 C 402.33 259.42 393.29 259.65 385.18 258.61 C 379.64 257.55 375.03 254.07 371.38 249.93 C 371.43 252.62 371.44 255.31 371.44 258.00 C 367.54 258.00 363.65 258.00 359.76 258.00 C 359.76 221.42 359.75 184.84 359.76 148.27 M 384.27 192.27 C 379.61 193.40 375.93 196.98 374.21 201.40 C 371.01 208.97 371.35 217.42 371.53 225.48 C 371.90 232.72 373.24 241.04 379.40 245.71 C 386.90 250.78 398.80 249.95 404.20 242.18 C 408.52 235.66 408.52 227.52 409.03 220.00 C 408.45 212.09 408.44 203.39 403.33 196.83 C 398.73 191.40 390.78 190.70 384.27 192.27 Z"/>
<path fill="#65cd32" opacity="1.00" d=" M 575.50 148.27 C 579.28 148.26 583.07 148.25 586.85 148.31 C 587.03 172.51 586.90 196.71 586.92 220.92 C 598.27 208.01 609.45 194.97 620.74 182.02 C 625.51 182.13 630.28 181.92 635.05 182.30 C 626.70 192.05 617.94 201.43 609.59 211.18 C 619.22 226.95 629.73 242.22 639.44 257.95 C 634.70 258.05 629.97 257.96 625.24 258.02 C 617.24 245.33 609.35 232.56 601.53 219.76 C 596.56 225.22 591.74 230.81 586.96 236.43 C 586.89 243.62 586.95 250.81 586.93 258.00 C 583.12 258.00 579.31 258.00 575.50 257.99 C 575.51 221.41 575.51 184.84 575.50 148.27 Z"/>
<path fill="#65cd32" opacity="1.00" d=" M 512.98 189.82 C 519.29 182.92 528.99 180.29 538.09 181.46 C 545.55 181.80 552.78 185.71 556.86 192.00 C 560.56 197.19 561.56 203.72 561.75 209.95 C 561.74 225.96 561.74 241.98 561.75 257.99 C 557.83 258.00 553.91 258.00 550.00 258.00 C 550.01 242.99 549.97 227.99 550.02 212.99 C 550.20 207.32 549.08 201.23 545.31 196.80 C 541.30 192.31 534.85 191.10 529.11 191.69 C 524.00 192.08 518.67 194.57 516.14 199.21 C 513.84 203.03 513.03 207.57 512.99 211.98 C 513.01 227.32 512.99 242.66 513.00 258.00 C 509.25 258.00 505.50 258.00 501.76 258.00 C 501.78 232.69 501.71 207.38 501.79 182.07 C 505.52 182.06 509.26 182.07 513.00 182.07 C 513.00 184.65 513.00 187.23 512.98 189.82 Z"/>
<path fill="#65cd32" opacity="1.00" d=" M 440.04 184.06 C 445.27 181.42 451.30 181.43 457.02 181.24 C 465.31 181.29 474.49 182.21 480.78 188.21 C 485.78 192.63 487.73 199.48 487.76 205.96 C 487.73 223.31 487.75 240.65 487.75 257.99 C 483.85 258.00 479.96 258.00 476.07 258.00 C 476.06 255.87 476.06 253.75 476.08 251.63 C 473.18 254.10 470.11 256.54 466.41 257.67 C 461.14 259.57 455.47 258.91 449.99 258.99 C 441.85 258.97 433.15 255.17 429.50 247.52 C 426.79 241.59 426.66 234.60 428.49 228.38 C 431.43 219.90 440.44 215.18 449.02 214.73 C 458.02 214.35 467.04 214.67 476.06 214.57 C 476.07 208.01 477.01 200.14 471.67 195.23 C 464.97 190.35 455.91 190.38 448.14 192.19 C 443.71 193.18 440.56 196.62 437.69 199.88 C 435.07 197.46 432.50 194.99 429.91 192.54 C 432.98 189.39 435.89 185.83 440.04 184.06 M 439.86 230.00 C 437.97 234.04 438.01 239.00 439.92 243.03 C 442.12 246.90 446.77 248.26 450.89 248.91 C 458.37 249.44 467.17 249.53 472.77 243.67 C 477.20 237.90 475.88 230.21 476.06 223.43 C 468.41 223.47 460.76 223.37 453.11 223.46 C 448.04 223.56 442.44 225.27 439.86 230.00 Z"/>
</g>
<g id="#ffffffff">
<path fill="#ffffff" opacity="1.00" d=" M 143.95 147.95 C 150.70 147.95 157.45 147.94 164.20 147.96 C 164.21 153.32 164.21 158.68 164.20 164.04 C 157.45 164.05 150.70 164.05 143.95 164.05 C 143.95 158.68 143.95 153.32 143.95 147.95 Z"/>
<path fill="#ffffff" opacity="1.00" d=" M 295.27 147.95 C 301.99 147.95 308.71 147.95 315.43 147.95 C 315.44 153.32 315.44 158.68 315.43 164.05 C 308.71 164.05 301.99 164.05 295.27 164.05 C 295.26 158.68 295.26 153.32 295.27 147.95 Z"/>
<path fill="#ffffff" opacity="1.00" d=" M 63.18 257.82 C 63.37 221.38 63.24 184.94 63.25 148.50 C 69.90 148.63 76.55 148.53 83.21 148.57 C 83.18 167.06 83.24 185.55 83.18 204.04 C 83.17 206.00 83.36 207.96 83.65 209.90 C 92.42 199.41 101.07 188.80 109.52 178.05 C 117.60 177.85 125.67 177.94 133.75 178.01 C 124.54 188.97 114.69 199.40 105.40 210.31 C 115.76 226.05 125.82 241.98 136.04 257.81 C 127.81 257.64 119.58 257.77 111.35 257.74 C 104.66 246.81 98.52 235.56 91.65 224.75 C 88.65 227.82 85.96 231.16 83.19 234.43 C 83.23 242.20 83.17 249.97 83.23 257.74 C 76.55 257.76 69.86 257.64 63.18 257.82 Z"/>
<path fill="#ffffff" opacity="1.00" d=" M 144.27 177.95 C 150.86 177.95 157.45 177.94 164.05 177.95 C 164.06 204.55 164.05 231.14 164.05 257.73 C 157.43 257.77 150.80 257.64 144.18 257.82 C 144.38 231.20 144.21 204.57 144.27 177.95 Z"/>
<path fill="#ffffff" opacity="1.00" d=" M 171.90 177.94 C 178.93 177.96 185.96 177.94 193.00 177.95 C 195.86 187.96 198.18 198.11 200.97 208.13 C 202.70 214.24 203.79 220.54 206.15 226.45 C 206.89 224.76 207.62 223.05 208.19 221.30 C 212.83 206.86 217.81 192.53 222.36 178.06 C 227.19 177.86 232.03 177.98 236.87 177.94 C 242.71 194.11 247.37 210.71 253.58 226.73 C 258.11 210.61 262.24 194.35 266.33 178.11 C 273.33 177.77 280.34 178.02 287.34 177.96 C 279.26 204.56 271.17 231.17 262.96 257.73 C 257.44 257.72 251.92 257.77 246.39 257.70 C 242.64 245.58 238.42 233.62 234.48 221.57 C 233.01 217.15 231.63 212.70 229.77 208.43 C 223.82 224.74 218.45 241.27 212.92 257.73 C 207.40 257.72 201.88 257.78 196.37 257.69 C 188.46 231.03 180.22 204.47 171.90 177.94 Z"/>
<path fill="#ffffff" opacity="1.00" d=" M 295.57 177.95 C 302.11 177.95 308.65 177.94 315.20 177.96 C 315.23 204.55 315.17 231.15 315.23 257.74 C 308.65 257.73 302.07 257.71 295.50 257.75 C 295.66 231.15 295.51 204.55 295.57 177.95 Z"/>
</g>
</svg>