<svg version="1.1" id="svg9969" xmlns:x="ns_extend;" xmlns:i="ns_ai;" xmlns:graph="ns_graphs;" inkscape:version="0.92.0 r15299" xmlns:cc="http://creativecommons.org/ns#" xmlns:dc="http://purl.org/dc/elements/1.1/" xmlns:inkscape="http://www.inkscape.org/namespaces/inkscape" xmlns:rdf="http://www.w3.org/1999/02/22-rdf-syntax-ns#" xmlns:sodipodi="http://sodipodi.sourceforge.net/DTD/sodipodi-0.dtd" xmlns:svg="http://www.w3.org/2000/svg" xmlns="http://www.w3.org/2000/svg" xmlns:xlink="http://www.w3.org/1999/xlink" x="0px" y="0px" viewBox="0 0 160.5 55" style="enable-background:new 0 0 160.5 55;" xml:space="preserve">
 <style type="text/css">
  .st0{fill:#292075;}
	.st1{fill:#00B5EF;}
 </style>
 <metadata id="metadata9966">
  <sfw xmlns="ns_sfw;">
   <slices>
   </slices>
   <sliceSourceBounds bottomLeftOrigin="true" height="55" width="160.5" x="-55.4" y="0.5">
   </sliceSourceBounds>
  </sfw>
 </metadata>
 <sodipodi:namedview bordercolor="#666666" borderopacity="1.0" fit-margin-bottom="0" fit-margin-left="0" fit-margin-right="0" fit-margin-top="0" id="base" inkscape:current-layer="layer1" inkscape:cx="52.314394" inkscape:cy="17.922669" inkscape:document-units="mm" inkscape:pageopacity="0.0" inkscape:pageshadow="2" inkscape:window-height="744" inkscape:window-maximized="1" inkscape:window-width="1280" inkscape:window-x="-4" inkscape:window-y="-4" inkscape:zoom="7.6651943" pagecolor="#ffffff" showgrid="false" units="px">
 </sodipodi:namedview>
 <g id="layer1" transform="translate(-33.783483,-175.57671)" inkscape:groupmode="layer" inkscape:label="Layer 1">
  <g id="g9996" transform="translate(0.13229192,-0.13228808)">
   <path id="path2868" inkscape:connector-curvature="0" class="st0" d="M128.5,203.6c-2.9-2.4-6.7-4-10.1-5.4
			c-4.6-1.9-8.6-3.6-8.6-6.6c0-1.3,0.6-2.6,1.8-3.4c1.2-0.9,2.9-1.4,4.7-1.4c5.8,0,10.4,4.1,10.4,4.1l1.1,1l5.1-9.6l-0.6-0.6
			c-0.2-0.2-5.6-5.8-16-5.8c-5,0-9.6,1.6-12.9,4.5c-3.4,2.9-5.3,7-5.3,11.4c0,4.3,1.7,7.8,5.1,10.7c2.9,2.4,6.5,4,10,5.5
			c4.7,2,8.9,3.8,8.9,7c0,2.4-1.6,5-6.2,5c-6.5,0-11.8-5-11.8-5l-1-1l-6.4,8.8l0.6,0.7c0.1,0.1,1.7,1.9,4.8,3.7
			c2.8,1.7,7.5,3.6,13.6,3.6c5.3,0,9.9-1.6,13.1-4.7c3.1-2.9,4.8-6.9,4.8-11.3C133.7,210.1,132,206.5,128.5,203.6">
   </path>
   <path id="path2870" inkscape:connector-curvature="0" class="st0" d="M182.3,229.9h11.9v-53.2h-11.9V229.9z">
   </path>
   <path id="path2874" inkscape:connector-curvature="0" class="st0" d="M159,219.9h-9.1v-33.3h8c3.6,0,5.6,2,5.6,5.5
			c0,3.5-1.8,5.3-5.5,5.3h-2.8v9.8h3.7c2,0,3.7,0.6,4.9,1.8c1.2,1.3,1.7,2.5,1.7,4.3C165.6,217.4,163,219.9,159,219.9 M174.8,206
			c-1.2-1.9-2.8-3.3-4.7-4.3c3.1-2.5,4.9-6.3,4.9-10.7c0-4.4-1.7-8.1-4.9-10.6c-3-2.4-7.2-3.7-12-3.7h-19.4v53.2h19.6
			c5.2,0,9.7-1.3,13-3.8c3.8-2.8,5.7-7,5.7-12.2C177,211,176.3,208.2,174.8,206">
   </path>
   <path id="path2878" inkscape:connector-curvature="0" class="st1" d="M61.2,175.7c-15.2,0-27.5,12.3-27.5,27.6
			c0,14.3,10.8,26,24.7,27.4v-20c-3-1.1-5.1-4-5.1-7.4c0-4.4,3.6-7.9,7.9-7.9c4.4,0,7.9,3.6,7.9,7.9c0,3.4-2.1,6.3-5.1,7.4v20
			c13.9-1.4,24.7-13.2,24.7-27.4C88.7,188.1,76.4,175.7,61.2,175.7">
   </path>
  </g>
 </g>
</svg>